<?xml version="1.0" encoding="UTF-8" standalone="no"?>
<!DOCTYPE svg PUBLIC "-//W3C//DTD SVG 1.1//EN"
 "http://www.w3.org/Graphics/SVG/1.1/DTD/svg11.dtd">
<!-- Generated by graphviz version 12.2.1 (20241206.2353)
 -->
<!-- Pages: 1 -->
<svg width="2006pt" height="2153pt"
 viewBox="0.00 0.00 2006.00 2153.35" xmlns="http://www.w3.org/2000/svg" xmlns:xlink="http://www.w3.org/1999/xlink">
<g id="graph0" class="graph" transform="scale(1 1) rotate(0) translate(4 2149.35)">
<polygon fill="white" stroke="none" points="-4,4 -4,-2149.35 2002,-2149.35 2002,4 -4,4"/>
<text text-anchor="middle" x="999" y="-2124.25" font-family="Arial Bold" font-size="18.00">ESP32 I2C Bus Manager and BH1750 HAL Architecture (Layered View)</text>
<text text-anchor="middle" x="999" y="-2103.25" font-family="Arial Bold" font-size="18.00">Comprehensive Functional Block Diagram with Detailed Component Relationships</text>
<g id="clust1" class="cluster">
<title>cluster_AppCluster</title>
</g>
<g id="clust2" class="cluster">
<title>cluster_BusManagerComponent</title>
<polygon fill="#e6f0ff" stroke="black" stroke-width="2" points="8,-8 8,-1779.1 810,-1779.1 810,-8 8,-8"/>
<text text-anchor="middle" x="409" y="-1761.8" font-family="Arial Bold" font-size="14.00">pstar_bus Component</text>
<text text-anchor="middle" x="409" y="-1746.05" font-family="Arial Bold" font-size="14.00">(I2C Manager)</text>
</g>
<g id="clust3" class="cluster">
<title>cluster_BH1750HAL</title>
<polygon fill="#ffe8f8" stroke="black" stroke-width="2" points="1413,-1649.6 1413,-1947.1 1645,-1947.1 1645,-1649.6 1413,-1649.6"/>
<text text-anchor="middle" x="1529" y="-1929.8" font-family="Arial Bold" font-size="14.00">bh1750_hal Component</text>
<text text-anchor="middle" x="1529" y="-1914.05" font-family="Arial Bold" font-size="14.00">(Light Sensor HAL)</text>
</g>
<g id="clust4" class="cluster">
<title>cluster_ESPIDF</title>
<polygon fill="#f0fff0" stroke="black" stroke-width="2" points="855,-644.6 855,-768.1 1903,-768.1 1903,-644.6 855,-644.6"/>
<text text-anchor="middle" x="1379" y="-750.8" font-family="Arial Bold" font-size="14.00">ESP&#45;IDF Dependencies</text>
<text text-anchor="middle" x="1379" y="-735.05" font-family="Arial Bold" font-size="14.00">(Hardware &amp; System Services)</text>
</g>
<!-- Main -->
<g id="node1" class="node">
<title>Main</title>
<path fill="#9fd49f" stroke="black" stroke-width="2" d="M1631.38,-2079.35C1631.38,-2079.35 1426.62,-2079.35 1426.62,-2079.35 1420.62,-2079.35 1414.62,-2073.35 1414.62,-2067.35 1414.62,-2067.35 1414.62,-2012.6 1414.62,-2012.6 1414.62,-2006.6 1420.62,-2000.6 1426.62,-2000.6 1426.62,-2000.6 1631.38,-2000.6 1631.38,-2000.6 1637.38,-2000.6 1643.38,-2006.6 1643.38,-2012.6 1643.38,-2012.6 1643.38,-2067.35 1643.38,-2067.35 1643.38,-2073.35 1637.38,-2079.35 1631.38,-2079.35"/>
<text text-anchor="middle" x="1529" y="-2049.95" font-family="Arial" font-size="12.00">main.c</text>
<text text-anchor="middle" x="1529" y="-2035.7" font-family="Arial" font-size="12.00">Application Entry Point</text>
<text text-anchor="middle" x="1529" y="-2021.45" font-family="Arial" font-size="12.00">(Setup, Configuration, Device Mgmt)</text>
</g>
<!-- BusMgr -->
<g id="node2" class="node">
<title>BusMgr</title>
<polygon fill="#a0c0ff" stroke="black" points="794.8,-1724.6 593.2,-1724.6 593.2,-1664.6 794.8,-1664.6 794.8,-1724.6"/>
<text text-anchor="middle" x="694" y="-1697.1" font-family="Arial" font-size="10.00">pstar_bus_manager.h</text>
<text text-anchor="middle" x="694" y="-1685.1" font-family="Arial" font-size="10.00">Bus Manager Core API</text>
</g>
<!-- Main&#45;&gt;BusMgr -->
<g id="edge1" class="edge">
<title>Main&#45;&gt;BusMgr</title>
<path fill="none" stroke="#4040ff" stroke-width="1.8" d="M1413.73,-2005.43C1227.05,-1939.79 875.12,-1795.07 742.21,-1729.31"/>
<polygon fill="#4040ff" stroke="#4040ff" stroke-width="1.8" points="743.57,-1727.25 736.21,-1726.31 741.38,-1731.63 743.57,-1727.25"/>
<text text-anchor="middle" x="1039.34" y="-1869.32" font-family="Arial" font-size="9.00" fill="#0000cc">initializes manager</text>
</g>
<!-- Main&#45;&gt;BusMgr -->
<g id="edge2" class="edge">
<title>Main&#45;&gt;BusMgr</title>
<path fill="none" stroke="#4040ff" stroke-width="1.2" d="M1433.62,-1999.75C1267.46,-1931.42 927.92,-1791.8 773.56,-1728.32"/>
<polygon fill="#4040ff" stroke="#4040ff" stroke-width="1.2" points="774.54,-1726.07 767.13,-1725.67 772.67,-1730.6 774.54,-1726.07"/>
<text text-anchor="middle" x="1079.96" y="-1855.48" font-family="Arial" font-size="9.00" fill="#0000cc">adds config</text>
</g>
<!-- Main&#45;&gt;BusMgr -->
<g id="edge3" class="edge">
<title>Main&#45;&gt;BusMgr</title>
<path fill="none" stroke="#4040ff" stroke-width="1.2" d="M1469.51,-1999.75C1327.34,-1930.95 983.21,-1789.86 803.16,-1727.01"/>
<polygon fill="#4040ff" stroke="#4040ff" stroke-width="1.2" points="804.11,-1724.74 796.7,-1724.76 802.5,-1729.37 804.11,-1724.74"/>
<text text-anchor="middle" x="1163.71" y="-1865.33" font-family="Arial" font-size="9.00" fill="#0000cc">registers pins</text>
</g>
<!-- BusConfig -->
<g id="node4" class="node">
<title>BusConfig</title>
<polygon fill="#c0e0a0" stroke="black" points="794.8,-1388.6 593.2,-1388.6 593.2,-1328.6 794.8,-1328.6 794.8,-1388.6"/>
<text text-anchor="middle" x="694" y="-1361.1" font-family="Arial" font-size="10.00">pstar_bus_config.h</text>
<text text-anchor="middle" x="694" y="-1349.1" font-family="Arial" font-size="10.00">Bus Configuration API</text>
</g>
<!-- Main&#45;&gt;BusConfig -->
<g id="edge4" class="edge">
<title>Main&#45;&gt;BusConfig</title>
<path fill="none" stroke="#40a040" stroke-width="1.8" d="M1556.17,-1999.75C1586.64,-1974.77 1627,-1947.1 1627,-1947.1 1627,-1947.1 1627,-1649.6 1627,-1649.6 1627,-1649.6 1018.95,-1467.62 784.08,-1391.98"/>
<polygon fill="#40a040" stroke="#40a040" stroke-width="1.8" points="784.87,-1389.66 777.46,-1389.84 783.37,-1394.32 784.87,-1389.66"/>
<text text-anchor="middle" x="1361.49" y="-1579.11" font-family="Arial" font-size="9.00" fill="#006400">creates config</text>
</g>
<!-- Main&#45;&gt;BusConfig -->
<g id="edge5" class="edge">
<title>Main&#45;&gt;BusConfig</title>
<path fill="none" stroke="#40a040" stroke-width="1.2" d="M1616.27,-1999.75C1658.64,-1974.77 1699,-1947.1 1699,-1947.1 1699,-1947.1 1699,-1649.6 1699,-1649.6 1699,-1649.6 1064.67,-1459.76 803.4,-1387.27"/>
<polygon fill="#40a040" stroke="#40a040" stroke-width="1.2" points="804.18,-1384.95 796.78,-1385.44 802.87,-1389.67 804.18,-1384.95"/>
<text text-anchor="middle" x="1424.51" y="-1575.98" font-family="Arial" font-size="9.00" fill="#006400">calls init</text>
</g>
<!-- BH1750Interface -->
<g id="node15" class="node">
<title>BH1750Interface</title>
<polygon fill="#ffb0d0" stroke="black" points="1629.8,-1892.6 1428.2,-1892.6 1428.2,-1832.6 1629.8,-1832.6 1629.8,-1892.6"/>
<text text-anchor="middle" x="1529" y="-1865.1" font-family="Arial" font-size="10.00">bh1750_hal.h</text>
<text text-anchor="middle" x="1529" y="-1853.1" font-family="Arial" font-size="10.00">BH1750 HAL API</text>
</g>
<!-- Main&#45;&gt;BH1750Interface -->
<g id="edge6" class="edge">
<title>Main&#45;&gt;BH1750Interface</title>
<path fill="none" stroke="#b040b0" stroke-width="1.8" d="M1483.08,-1999.62C1472.14,-1970.33 1472.31,-1930.58 1483.59,-1901.62"/>
<polygon fill="#b040b0" stroke="#b040b0" stroke-width="1.8" points="1485.71,-1902.88 1486.33,-1895.49 1481.23,-1900.88 1485.71,-1902.88"/>
<text text-anchor="middle" x="1454.08" y="-1952.57" font-family="Arial" font-size="9.00" fill="#800080">initializes HAL</text>
</g>
<!-- Main&#45;&gt;BH1750Interface -->
<g id="edge7" class="edge">
<title>Main&#45;&gt;BH1750Interface</title>
<path fill="none" stroke="#b040b0" stroke-width="1.5" d="M1529,-1999.62C1529,-1970.46 1529,-1930.93 1529,-1902"/>
<polygon fill="#b040b0" stroke="#b040b0" stroke-width="1.5" points="1531.45,-1902.27 1529,-1895.27 1526.55,-1902.27 1531.45,-1902.27"/>
<text text-anchor="middle" x="1555.62" y="-1952.76" font-family="Arial" font-size="9.00" fill="#800080">reads sensor</text>
</g>
<!-- Main&#45;&gt;BH1750Interface -->
<g id="edge8" class="edge">
<title>Main&#45;&gt;BH1750Interface</title>
<path fill="none" stroke="#b040b0" stroke-width="1.2" d="M1574.92,-1999.62C1585.95,-1970.08 1585.69,-1929.9 1574.12,-1900.88"/>
<polygon fill="#b040b0" stroke="#b040b0" stroke-width="1.2" points="1576.43,-1900.03 1571.31,-1894.66 1571.96,-1902.05 1576.43,-1900.03"/>
<text text-anchor="middle" x="1595.52" y="-1952.2" font-family="Arial" font-size="9.00" fill="#800080">sets mode</text>
</g>
<!-- BusMgrImpl -->
<g id="node3" class="node">
<title>BusMgrImpl</title>
<polygon fill="#c0d8ff" stroke="black" points="794.8,-1556.6 593.2,-1556.6 593.2,-1496.6 794.8,-1496.6 794.8,-1556.6"/>
<text text-anchor="middle" x="694" y="-1529.1" font-family="Arial" font-size="10.00">pstar_bus_manager.c</text>
<text text-anchor="middle" x="694" y="-1517.1" font-family="Arial" font-size="10.00">Implementation</text>
</g>
<!-- BusMgr&#45;&gt;BusMgrImpl -->
<g id="edge9" class="edge">
<title>BusMgr&#45;&gt;BusMgrImpl</title>
<path fill="none" stroke="#4040ff" stroke-width="1.2" stroke-dasharray="5,2" d="M694,-1655.77C694,-1625.76 694,-1584.41 694,-1556.88"/>
<polygon fill="#4040ff" stroke="#4040ff" stroke-width="1.2" points="691.55,-1655.49 694,-1662.49 696.45,-1655.49 691.55,-1655.49"/>
<text text-anchor="middle" x="661.37" y="-1608.28" font-family="Arial" font-size="9.00">implemented by</text>
</g>
<!-- BusTypes -->
<g id="node8" class="node">
<title>BusTypes</title>
<polygon fill="#d8d8ff" stroke="black" points="520.8,-884.6 319.2,-884.6 319.2,-824.6 520.8,-824.6 520.8,-884.6"/>
<text text-anchor="middle" x="420" y="-857.1" font-family="Arial" font-size="10.00">pstar_bus_types.h</text>
<text text-anchor="middle" x="420" y="-845.1" font-family="Arial" font-size="10.00">Core Type Definitions</text>
</g>
<!-- BusMgr&#45;&gt;BusTypes -->
<g id="edge10" class="edge">
<title>BusMgr&#45;&gt;BusTypes</title>
<path fill="none" stroke="#000080" stroke-width="1.2" stroke-dasharray="1,5" d="M658.39,-1664.21C609.61,-1623.95 528,-1556.6 528,-1556.6 528,-1556.6 372,-1359.6 372,-1359.6 372,-1359.6 372,-1359.6 372,-1189.6 372,-1189.6 401.98,-981.02 414.55,-893.52"/>
<polygon fill="#000080" stroke="#000080" stroke-width="1.2" points="416.95,-894.02 415.52,-886.75 412.1,-893.33 416.95,-894.02"/>
<text text-anchor="middle" x="350.25" y="-1337.16" font-family="Arial" font-size="9.00">uses types</text>
</g>
<!-- BusMgrImpl&#45;&gt;BusConfig -->
<g id="edge11" class="edge">
<title>BusMgrImpl&#45;&gt;BusConfig</title>
<path fill="none" stroke="#4040ff" stroke-width="1.2" stroke-dasharray="1,5" d="M694,-1496.3C694,-1468.77 694,-1427.42 694,-1397.41"/>
<polygon fill="#4040ff" stroke="#4040ff" stroke-width="1.2" points="696.45,-1397.7 694,-1390.7 691.55,-1397.7 696.45,-1397.7"/>
<text text-anchor="middle" x="668.5" y="-1448.81" font-family="Arial" font-size="9.00">calls destroy</text>
</g>
<!-- FreeRTOS -->
<g id="node19" class="node">
<title>FreeRTOS</title>
<polygon fill="#c0e0ff" stroke="black" points="1890.8,-716.6 1689.2,-716.6 1689.2,-656.6 1890.8,-656.6 1890.8,-716.6"/>
<text text-anchor="middle" x="1790" y="-689.1" font-family="Arial" font-size="10.00">freertos/*</text>
<text text-anchor="middle" x="1790" y="-677.1" font-family="Arial" font-size="10.00">OS Services</text>
</g>
<!-- BusMgrImpl&#45;&gt;FreeRTOS -->
<g id="edge12" class="edge">
<title>BusMgrImpl&#45;&gt;FreeRTOS</title>
<path fill="none" stroke="#4040ff" stroke-width="1.5" d="M740.98,-1496.21C805.33,-1455.95 913,-1388.6 913,-1388.6 913,-1388.6 1568.41,-864.72 1746.05,-722.73"/>
<polygon fill="#4040ff" stroke="#4040ff" stroke-width="1.5" points="1747.44,-724.75 1751.38,-718.47 1744.38,-720.92 1747.44,-724.75"/>
<text text-anchor="middle" x="1207.15" y="-1120.96" font-family="Arial" font-size="9.00">uses synchronization</text>
</g>
<!-- ESPLog -->
<g id="node20" class="node">
<title>ESPLog</title>
<polygon fill="#d0ffd0" stroke="black" points="1616.8,-716.6 1415.2,-716.6 1415.2,-656.6 1616.8,-656.6 1616.8,-716.6"/>
<text text-anchor="middle" x="1516" y="-689.1" font-family="Arial" font-size="10.00">esp_log.h</text>
<text text-anchor="middle" x="1516" y="-677.1" font-family="Arial" font-size="10.00">Logging Utilities</text>
</g>
<!-- BusMgrImpl&#45;&gt;ESPLog -->
<g id="edge13" class="edge">
<title>BusMgrImpl&#45;&gt;ESPLog</title>
<path fill="none" stroke="#008000" stroke-width="1.2" stroke-dasharray="1,5" d="M723.39,-1496.21C763.65,-1455.95 831,-1388.6 831,-1388.6 831,-1388.6 1342.48,-865.18 1481.49,-722.92"/>
<polygon fill="#008000" stroke="#008000" stroke-width="1.2" points="1483.03,-724.85 1486.17,-718.13 1479.52,-721.42 1483.03,-724.85"/>
<text text-anchor="middle" x="1094.44" y="-1112.13" font-family="Arial" font-size="9.00">logs</text>
</g>
<!-- BusConfigImpl -->
<g id="node5" class="node">
<title>BusConfigImpl</title>
<polygon fill="#d8f0c0" stroke="black" points="794.8,-1220.6 593.2,-1220.6 593.2,-1160.6 794.8,-1160.6 794.8,-1220.6"/>
<text text-anchor="middle" x="694" y="-1193.1" font-family="Arial" font-size="10.00">pstar_bus_config.c</text>
<text text-anchor="middle" x="694" y="-1181.1" font-family="Arial" font-size="10.00">Implementation</text>
</g>
<!-- BusConfig&#45;&gt;BusConfigImpl -->
<g id="edge14" class="edge">
<title>BusConfig&#45;&gt;BusConfigImpl</title>
<path fill="none" stroke="#40a040" stroke-width="1.2" stroke-dasharray="5,2" d="M694,-1319.77C694,-1289.76 694,-1248.41 694,-1220.88"/>
<polygon fill="#40a040" stroke="#40a040" stroke-width="1.2" points="691.55,-1319.49 694,-1326.49 696.45,-1319.49 691.55,-1319.49"/>
<text text-anchor="middle" x="661.37" y="-1272.28" font-family="Arial" font-size="9.00">implemented by</text>
</g>
<!-- BusConfig&#45;&gt;BusTypes -->
<g id="edge15" class="edge">
<title>BusConfig&#45;&gt;BusTypes</title>
<path fill="none" stroke="#000080" stroke-width="1.2" stroke-dasharray="1,5" d="M664.61,-1328.21C624.35,-1287.95 557,-1220.6 557,-1220.6 557,-1220.6 468.89,-985.85 433.99,-892.87"/>
<polygon fill="#000080" stroke="#000080" stroke-width="1.2" points="436.37,-892.25 431.62,-886.55 431.78,-893.97 436.37,-892.25"/>
<text text-anchor="middle" x="500.48" y="-1129.93" font-family="Arial" font-size="9.00">uses types</text>
</g>
<!-- BusI2C -->
<g id="node6" class="node">
<title>BusI2C</title>
<polygon fill="#ffe0b0" stroke="black" points="794.8,-1052.6 593.2,-1052.6 593.2,-992.6 794.8,-992.6 794.8,-1052.6"/>
<text text-anchor="middle" x="694" y="-1025.1" font-family="Arial" font-size="10.00">pstar_bus_i2c.h</text>
<text text-anchor="middle" x="694" y="-1013.1" font-family="Arial" font-size="10.00">I2C Protocol API</text>
</g>
<!-- BusConfigImpl&#45;&gt;BusI2C -->
<g id="edge16" class="edge">
<title>BusConfigImpl&#45;&gt;BusI2C</title>
<path fill="none" stroke="#40a040" stroke-width="1.2" stroke-dasharray="1,5" d="M694,-1160.3C694,-1132.77 694,-1091.42 694,-1061.41"/>
<polygon fill="#40a040" stroke="#40a040" stroke-width="1.2" points="696.45,-1061.7 694,-1054.7 691.55,-1061.7 696.45,-1061.7"/>
<text text-anchor="middle" x="650.88" y="-1112.81" font-family="Arial" font-size="9.00">calls init_default_ops</text>
</g>
<!-- I2CDriver -->
<g id="node17" class="node">
<title>I2CDriver</title>
<polygon fill="#ffe0b0" stroke="black" points="1068.8,-716.6 867.2,-716.6 867.2,-656.6 1068.8,-656.6 1068.8,-716.6"/>
<text text-anchor="middle" x="968" y="-689.1" font-family="Arial" font-size="10.00">driver/i2c.h</text>
<text text-anchor="middle" x="968" y="-677.1" font-family="Arial" font-size="10.00">ESP I2C Driver</text>
</g>
<!-- BusConfigImpl&#45;&gt;I2CDriver -->
<g id="edge17" class="edge">
<title>BusConfigImpl&#45;&gt;I2CDriver</title>
<path fill="none" stroke="#e08000" stroke-width="1.5" d="M723.39,-1160.21C763.65,-1119.95 831,-1052.6 831,-1052.6 831,-1052.6 918.76,-818.79 953.8,-725.44"/>
<polygon fill="#e08000" stroke="#e08000" stroke-width="1.5" points="956.06,-726.39 956.22,-718.98 951.47,-724.67 956.06,-726.39"/>
<text text-anchor="middle" x="831.54" y="-962.21" font-family="Arial" font-size="9.00">configures driver</text>
</g>
<!-- GPIODriver -->
<g id="node18" class="node">
<title>GPIODriver</title>
<polygon fill="#c0e0a0" stroke="black" points="1342.8,-716.6 1141.2,-716.6 1141.2,-656.6 1342.8,-656.6 1342.8,-716.6"/>
<text text-anchor="middle" x="1242" y="-689.1" font-family="Arial" font-size="10.00">driver/gpio.h</text>
<text text-anchor="middle" x="1242" y="-677.1" font-family="Arial" font-size="10.00">ESP GPIO Driver</text>
</g>
<!-- BusConfigImpl&#45;&gt;GPIODriver -->
<g id="edge18" class="edge">
<title>BusConfigImpl&#45;&gt;GPIODriver</title>
<path fill="none" stroke="#40a040" stroke-width="1.2" d="M737.55,-1160.21C797.2,-1119.95 897,-1052.6 897,-1052.6 897,-1052.6 1121.57,-815.01 1208.35,-723.2"/>
<polygon fill="#40a040" stroke="#40a040" stroke-width="1.2" points="1210.07,-724.94 1213.1,-718.17 1206.51,-721.58 1210.07,-724.94"/>
<text text-anchor="middle" x="959.6" y="-959.75" font-family="Arial" font-size="9.00">uses pin defs</text>
</g>
<!-- BusConfigImpl&#45;&gt;ESPLog -->
<g id="edge19" class="edge">
<title>BusConfigImpl&#45;&gt;ESPLog</title>
<path fill="none" stroke="#008000" stroke-width="1.2" stroke-dasharray="1,5" d="M755.35,-1160.21C839.39,-1119.95 980,-1052.6 980,-1052.6 980,-1052.6 1287,-824.6 1287,-824.6 1287,-824.6 1391.81,-761.9 1459.62,-721.33"/>
<polygon fill="#008000" stroke="#008000" stroke-width="1.2" points="1460.57,-723.62 1465.32,-717.92 1458.05,-719.41 1460.57,-723.62"/>
<text text-anchor="middle" x="1105.63" y="-954.84" font-family="Arial" font-size="9.00">logs</text>
</g>
<!-- BusI2CImpl -->
<g id="node7" class="node">
<title>BusI2CImpl</title>
<polygon fill="#fff0d0" stroke="black" points="794.8,-884.6 593.2,-884.6 593.2,-824.6 794.8,-824.6 794.8,-884.6"/>
<text text-anchor="middle" x="694" y="-857.1" font-family="Arial" font-size="10.00">pstar_bus_i2c.c</text>
<text text-anchor="middle" x="694" y="-845.1" font-family="Arial" font-size="10.00">Implementation</text>
</g>
<!-- BusI2C&#45;&gt;BusI2CImpl -->
<g id="edge20" class="edge">
<title>BusI2C&#45;&gt;BusI2CImpl</title>
<path fill="none" stroke="#e08000" stroke-width="1.2" stroke-dasharray="5,2" d="M694,-983.77C694,-953.76 694,-912.41 694,-884.88"/>
<polygon fill="#e08000" stroke="#e08000" stroke-width="1.2" points="691.55,-983.49 694,-990.49 696.45,-983.49 691.55,-983.49"/>
<text text-anchor="middle" x="661.37" y="-936.28" font-family="Arial" font-size="9.00">implemented by</text>
</g>
<!-- BusI2C&#45;&gt;BusTypes -->
<g id="edge21" class="edge">
<title>BusI2C&#45;&gt;BusTypes</title>
<path fill="none" stroke="#000080" stroke-width="1.2" stroke-dasharray="1,5" d="M645.33,-992.11C597.94,-963.4 525.96,-919.79 476.16,-889.63"/>
<polygon fill="#000080" stroke="#000080" stroke-width="1.2" points="477.49,-887.56 470.23,-886.03 474.95,-891.75 477.49,-887.56"/>
<text text-anchor="middle" x="539" y="-942.82" font-family="Arial" font-size="9.00">uses types</text>
</g>
<!-- BusI2CImpl&#45;&gt;BusMgr -->
<g id="edge22" class="edge">
<title>BusI2CImpl&#45;&gt;BusMgr</title>
<path fill="none" stroke="#e08000" stroke-width="1.2" stroke-dasharray="1,5" d="M664.61,-884.99C624.35,-925.25 557,-992.6 557,-992.6 557,-992.6 520,-1189.6 520,-1189.6 520,-1359.6 520,-1359.6 520,-1359.6 520,-1359.6 557,-1556.6 557,-1556.6 557,-1556.6 617.94,-1617.54 658.53,-1658.13"/>
<polygon fill="#e08000" stroke="#e08000" stroke-width="1.2" points="656.64,-1659.71 663.33,-1662.93 660.11,-1656.24 656.64,-1659.71"/>
<text text-anchor="middle" x="491.5" y="-1272.25" font-family="Arial" font-size="9.00">uses find_bus</text>
</g>
<!-- BusI2CImpl&#45;&gt;I2CDriver -->
<g id="edge23" class="edge">
<title>BusI2CImpl&#45;&gt;I2CDriver</title>
<path fill="none" stroke="#e08000" stroke-width="1.5" d="M742.67,-824.11C789.97,-795.46 861.74,-751.97 911.53,-721.81"/>
<polygon fill="#e08000" stroke="#e08000" stroke-width="1.5" points="912.66,-723.99 917.38,-718.27 910.12,-719.8 912.66,-723.99"/>
<text text-anchor="middle" x="796.35" y="-774.91" font-family="Arial" font-size="9.00">uses driver API</text>
</g>
<!-- BusI2CImpl&#45;&gt;ESPLog -->
<g id="edge24" class="edge">
<title>BusI2CImpl&#45;&gt;ESPLog</title>
<path fill="none" stroke="#008000" stroke-width="1.2" stroke-dasharray="1,5" d="M795.07,-840.98C985.62,-817.2 1379,-768.1 1379,-768.1 1379,-768.1 1421.17,-743.32 1458.72,-721.26"/>
<polygon fill="#008000" stroke="#008000" stroke-width="1.2" points="1459.79,-723.47 1464.59,-717.81 1457.31,-719.24 1459.79,-723.47"/>
<text text-anchor="middle" x="1124.29" y="-800.77" font-family="Arial" font-size="9.00">logs</text>
</g>
<!-- BusTypesImpl -->
<g id="node9" class="node">
<title>BusTypesImpl</title>
<polygon fill="#e8e8ff" stroke="black" points="224.8,-716.6 23.2,-716.6 23.2,-656.6 224.8,-656.6 224.8,-716.6"/>
<text text-anchor="middle" x="124" y="-689.1" font-family="Arial" font-size="10.00">pstar_bus_types.c</text>
<text text-anchor="middle" x="124" y="-677.1" font-family="Arial" font-size="10.00">Type Utilities Impl</text>
</g>
<!-- BusTypes&#45;&gt;BusTypesImpl -->
<g id="edge25" class="edge">
<title>BusTypes&#45;&gt;BusTypesImpl</title>
<path fill="none" stroke="#8080ff" stroke-width="1.2" stroke-dasharray="5,2" d="M360,-819.95C306.18,-789.77 228,-745.92 176.59,-717.09"/>
<polygon fill="#8080ff" stroke="#8080ff" stroke-width="1.2" points="358.53,-821.94 365.84,-823.23 360.93,-817.66 358.53,-821.94"/>
<text text-anchor="middle" x="235.67" y="-770.47" font-family="Arial" font-size="9.00">implemented by</text>
</g>
<!-- CommonTypes -->
<g id="node10" class="node">
<title>CommonTypes</title>
<polygon fill="#e8e8ff" stroke="black" points="603.8,-73.4 408.2,-73.4 408.2,-23 609.8,-23 609.8,-67.4 603.8,-73.4"/>
<polyline fill="none" stroke="black" points="603.8,-73.4 603.8,-67.4"/>
<polyline fill="none" stroke="black" points="609.8,-67.4 603.8,-67.4"/>
<text text-anchor="middle" x="509" y="-44.7" font-family="Arial" font-size="10.00">pstar_bus_common_types.h</text>
</g>
<!-- BusTypes&#45;&gt;CommonTypes -->
<g id="edge26" class="edge">
<title>BusTypes&#45;&gt;CommonTypes</title>
<path fill="none" stroke="#8080a0" stroke-width="1.2" d="M409.17,-824.39C379.32,-743.82 298,-524.4 298,-524.4 298,-524.4 298,-524.4 298,-364 298,-364 372,-181.4 372,-181.4 372,-181.4 443.93,-111.99 483.55,-73.76"/>
<text text-anchor="middle" x="280.75" y="-430.09" font-family="Arial" font-size="9.00">includes</text>
</g>
<!-- EventTypes -->
<g id="node11" class="node">
<title>EventTypes</title>
<polygon fill="#e8e8ff" stroke="black" points="603.8,-231.8 408.2,-231.8 408.2,-181.4 609.8,-181.4 609.8,-225.8 603.8,-231.8"/>
<polyline fill="none" stroke="black" points="603.8,-231.8 603.8,-225.8"/>
<polyline fill="none" stroke="black" points="609.8,-225.8 603.8,-225.8"/>
<text text-anchor="middle" x="509" y="-203.1" font-family="Arial" font-size="10.00">pstar_bus_event_types.h</text>
</g>
<!-- BusTypes&#45;&gt;EventTypes -->
<g id="edge27" class="edge">
<title>BusTypes&#45;&gt;EventTypes</title>
<path fill="none" stroke="#8080a0" stroke-width="1.2" d="M419.3,-824.26C416.89,-722.4 409,-390.2 409,-390.2 409,-390.2 409,-339.8 409,-339.8 409,-339.8 461.51,-270.39 490.43,-232.16"/>
<text text-anchor="middle" x="394.7" y="-516.52" font-family="Arial" font-size="9.00">includes</text>
</g>
<!-- FunctionTypes -->
<g id="node12" class="node">
<title>FunctionTypes</title>
<polygon fill="#e8e8ff" stroke="black" points="640.8,-390.2 445.2,-390.2 445.2,-339.8 646.8,-339.8 646.8,-384.2 640.8,-390.2"/>
<polyline fill="none" stroke="black" points="640.8,-390.2 640.8,-384.2"/>
<polyline fill="none" stroke="black" points="646.8,-384.2 640.8,-384.2"/>
<text text-anchor="middle" x="546" y="-361.5" font-family="Arial" font-size="10.00">pstar_bus_function_types.h</text>
</g>
<!-- BusTypes&#45;&gt;FunctionTypes -->
<g id="edge28" class="edge">
<title>BusTypes&#45;&gt;FunctionTypes</title>
<path fill="none" stroke="#8080a0" stroke-width="1.2" d="M425.28,-824.54C435.73,-767.11 458,-644.6 458,-644.6 458,-644.6 516.93,-458.02 538.34,-390.24"/>
<text text-anchor="middle" x="453.38" y="-606.57" font-family="Arial" font-size="9.00">includes</text>
</g>
<!-- ProtocolTypes -->
<g id="node13" class="node">
<title>ProtocolTypes</title>
<polygon fill="#e8e8ff" stroke="black" points="751.8,-548.6 556.2,-548.6 556.2,-498.2 757.8,-498.2 757.8,-542.6 751.8,-548.6"/>
<polyline fill="none" stroke="black" points="751.8,-548.6 751.8,-542.6"/>
<polyline fill="none" stroke="black" points="757.8,-542.6 751.8,-542.6"/>
<text text-anchor="middle" x="657" y="-519.9" font-family="Arial" font-size="10.00">pstar_bus_protocol_types.h</text>
</g>
<!-- BusTypes&#45;&gt;ProtocolTypes -->
<g id="edge29" class="edge">
<title>BusTypes&#45;&gt;ProtocolTypes</title>
<path fill="none" stroke="#8080a0" stroke-width="1.2" d="M439.05,-824.54C476.69,-767.11 557,-644.6 557,-644.6 557,-644.6 607.27,-584.18 636.52,-549.01"/>
<text text-anchor="middle" x="514.86" y="-684.52" font-family="Arial" font-size="9.00">includes</text>
</g>
<!-- ManagerTypes -->
<g id="node14" class="node">
<title>ManagerTypes</title>
<polygon fill="#e8e8ff" stroke="black" points="788.8,-711.8 593.2,-711.8 593.2,-661.4 794.8,-661.4 794.8,-705.8 788.8,-711.8"/>
<polyline fill="none" stroke="black" points="788.8,-711.8 788.8,-705.8"/>
<polyline fill="none" stroke="black" points="794.8,-705.8 788.8,-705.8"/>
<text text-anchor="middle" x="694" y="-683.1" font-family="Arial" font-size="10.00">pstar_bus_manager_types.h</text>
</g>
<!-- BusTypes&#45;&gt;ManagerTypes -->
<g id="edge30" class="edge">
<title>BusTypes&#45;&gt;ManagerTypes</title>
<path fill="none" stroke="#8080a0" stroke-width="1.2" d="M468.67,-824.11C521.26,-792.25 604.13,-742.04 653.37,-712.22"/>
<text text-anchor="middle" x="543.77" y="-770.12" font-family="Arial" font-size="9.00">includes</text>
</g>
<!-- EventTypes&#45;&gt;CommonTypes -->
<g id="edge31" class="edge">
<title>EventTypes&#45;&gt;CommonTypes</title>
<path fill="none" stroke="#8080a0" stroke-width="1.2" stroke-dasharray="1,5" d="M509,-181.16C509,-154.61 509,-112.04 509,-82.46"/>
<polygon fill="#8080a0" stroke="#8080a0" stroke-width="1.2" points="511.45,-82.54 509,-75.54 506.55,-82.54 511.45,-82.54"/>
<text text-anchor="middle" x="499.25" y="-133.76" font-family="Arial" font-size="9.00">uses</text>
</g>
<!-- FunctionTypes&#45;&gt;EventTypes -->
<g id="edge32" class="edge">
<title>FunctionTypes&#45;&gt;EventTypes</title>
<path fill="none" stroke="#8080a0" stroke-width="1.2" stroke-dasharray="1,5" d="M540.22,-339.56C533.91,-312.9 523.78,-270.07 516.78,-240.47"/>
<polygon fill="#8080a0" stroke="#8080a0" stroke-width="1.2" points="519.22,-240.14 515.22,-233.89 514.45,-241.27 519.22,-240.14"/>
<text text-anchor="middle" x="518.75" y="-291.97" font-family="Arial" font-size="9.00">uses</text>
</g>
<!-- ProtocolTypes&#45;&gt;CommonTypes -->
<g id="edge33" class="edge">
<title>ProtocolTypes&#45;&gt;CommonTypes</title>
<path fill="none" stroke="#8080a0" stroke-width="1.2" stroke-dasharray="1,5" d="M661.83,-497.84C669.35,-459.61 683,-390.2 683,-390.2 683,-390.2 683,-339.8 683,-339.8 683,-339.8 646,-181.4 646,-181.4 646,-181.4 581.19,-118.86 540.72,-79.81"/>
<polygon fill="#8080a0" stroke="#8080a0" stroke-width="1.2" points="542.49,-78.11 535.75,-75.02 539.09,-81.64 542.49,-78.11"/>
<text text-anchor="middle" x="656.32" y="-269.27" font-family="Arial" font-size="9.00">uses</text>
</g>
<!-- ProtocolTypes&#45;&gt;FunctionTypes -->
<g id="edge34" class="edge">
<title>ProtocolTypes&#45;&gt;FunctionTypes</title>
<path fill="none" stroke="#8080a0" stroke-width="1.2" stroke-dasharray="1,5" d="M639.66,-497.96C620.41,-470.84 589.29,-427 568.26,-397.36"/>
<polygon fill="#8080a0" stroke="#8080a0" stroke-width="1.2" points="570.51,-396.3 564.46,-392 566.51,-399.13 570.51,-396.3"/>
<text text-anchor="middle" x="594.21" y="-449.61" font-family="Arial" font-size="9.00">uses</text>
</g>
<!-- ManagerTypes&#45;&gt;ProtocolTypes -->
<g id="edge35" class="edge">
<title>ManagerTypes&#45;&gt;ProtocolTypes</title>
<path fill="none" stroke="#8080a0" stroke-width="1.2" stroke-dasharray="1,5" d="M688.38,-661.12C682.01,-633.34 671.58,-587.92 664.51,-557.12"/>
<polygon fill="#8080a0" stroke="#8080a0" stroke-width="1.2" points="666.97,-556.89 663.02,-550.62 662.2,-557.99 666.97,-556.89"/>
<text text-anchor="middle" x="666.7" y="-611.07" font-family="Arial" font-size="9.00">uses</text>
</g>
<!-- BH1750Interface&#45;&gt;BusMgr -->
<g id="edge36" class="edge">
<title>BH1750Interface&#45;&gt;BusMgr</title>
<path fill="none" stroke="#b040b0" stroke-width="1.2" stroke-dasharray="1,5" d="M1427.86,-1841.49C1270.14,-1810.14 966.83,-1749.84 803.9,-1717.45"/>
<polygon fill="#b040b0" stroke="#b040b0" stroke-width="1.2" points="804.41,-1715.05 797.07,-1716.09 803.46,-1719.86 804.41,-1715.05"/>
<text text-anchor="middle" x="1076.88" y="-1781.42" font-family="Arial" font-size="9.00">uses manager type</text>
</g>
<!-- BH1750Impl -->
<g id="node16" class="node">
<title>BH1750Impl</title>
<polygon fill="#ffcfe0" stroke="black" points="1629.8,-1724.6 1428.2,-1724.6 1428.2,-1664.6 1629.8,-1664.6 1629.8,-1724.6"/>
<text text-anchor="middle" x="1529" y="-1697.1" font-family="Arial" font-size="10.00">bh1750_hal.c</text>
<text text-anchor="middle" x="1529" y="-1685.1" font-family="Arial" font-size="10.00">Implementation</text>
</g>
<!-- BH1750Interface&#45;&gt;BH1750Impl -->
<g id="edge37" class="edge">
<title>BH1750Interface&#45;&gt;BH1750Impl</title>
<path fill="none" stroke="#b040b0" stroke-width="1.2" stroke-dasharray="5,2" d="M1529,-1823.77C1529,-1793.76 1529,-1752.41 1529,-1724.88"/>
<polygon fill="#b040b0" stroke="#b040b0" stroke-width="1.2" points="1526.55,-1823.49 1529,-1830.49 1531.45,-1823.49 1526.55,-1823.49"/>
<text text-anchor="middle" x="1496.38" y="-1776.28" font-family="Arial" font-size="9.00">implemented by</text>
</g>
<!-- BH1750Impl&#45;&gt;BusI2C -->
<g id="edge38" class="edge">
<title>BH1750Impl&#45;&gt;BusI2C</title>
<path fill="none" stroke="#b040b0" stroke-width="1.5" d="M1492.31,-1664.16C1356.74,-1555.38 884.28,-1176.28 737.71,-1058.67"/>
<polygon fill="#b040b0" stroke="#b040b0" stroke-width="1.5" points="739.33,-1056.83 732.34,-1054.36 736.27,-1060.66 739.33,-1056.83"/>
<text text-anchor="middle" x="1089.14" y="-1363.37" font-family="Arial" font-size="9.00">calls I2C API</text>
</g>
<!-- BH1750Impl&#45;&gt;FreeRTOS -->
<g id="edge39" class="edge">
<title>BH1750Impl&#45;&gt;FreeRTOS</title>
<path fill="none" stroke="#b040b0" stroke-width="1.2" d="M1570.21,-1664.25C1684.65,-1582.75 1998,-1359.6 1998,-1359.6 1998,-1359.6 1998,-1359.6 1998,-1021.6 1998,-1021.6 1866.79,-810.91 1812.8,-724.2"/>
<polygon fill="#b040b0" stroke="#b040b0" stroke-width="1.2" points="1815.02,-723.14 1809.24,-718.49 1810.86,-725.73 1815.02,-723.14"/>
<text text-anchor="middle" x="1973.62" y="-1279.97" font-family="Arial" font-size="9.00">uses delays</text>
</g>
<!-- BH1750Impl&#45;&gt;ESPLog -->
<g id="edge40" class="edge">
<title>BH1750Impl&#45;&gt;ESPLog</title>
<path fill="none" stroke="#b040b0" stroke-width="1.2" stroke-dasharray="1,5" d="M1538.23,-1664.25C1563.85,-1582.75 1634,-1359.6 1634,-1359.6 1634,-1359.6 1634,-1359.6 1634,-1189.6 1634,-1189.6 1552.18,-841.54 1524.81,-725.06"/>
<polygon fill="#b040b0" stroke="#b040b0" stroke-width="1.2" points="1527.26,-724.78 1523.27,-718.53 1522.49,-725.9 1527.26,-724.78"/>
<text text-anchor="middle" x="1625.38" y="-1197.63" font-family="Arial" font-size="9.00">logs</text>
</g>
</g>
</svg>
